<svg width="100" height="100" viewBox="0 0 100 100" fill="none" xmlns="http://www.w3.org/2000/svg">
<path d="M52.1651 8.75L86.8061 68.75C87.7683 70.4167 86.5655 72.5 84.641 72.5H15.359C13.4345 72.5 12.2317 70.4167 13.1939 68.75L47.8349 8.75C48.7972 7.08333 51.2028 7.08333 52.1651 8.75Z" stroke="#EB5757" stroke-width="5"/>
<path d="M52 28.0909L51.6591 53.1818H47.7045L47.3636 28.0909H52ZM49.6818 63.2727C48.8409 63.2727 48.1193 62.9716 47.517 62.3693C46.9148 61.767 46.6136 61.0455 46.6136 60.2045C46.6136 59.3636 46.9148 58.642 47.517 58.0398C48.1193 57.4375 48.8409 57.1364 49.6818 57.1364C50.5227 57.1364 51.2443 57.4375 51.8466 58.0398C52.4489 58.642 52.75 59.3636 52.75 60.2045C52.75 60.7614 52.608 61.2727 52.3239 61.7386C52.0511 62.2045 51.6818 62.5795 51.2159 62.8636C50.7614 63.1364 50.25 63.2727 49.6818 63.2727Z" fill="#EB5757"/>
</svg>
